<?xml version="1.0" encoding="UTF-8" standalone="no"?>
<svg
   width="150pt"
   height="150pt"
   viewBox="0 0 150 150"
   version="1.1"
   id="svg62"
   sodipodi:docname="wok_dark.svg"
   inkscape:export-filename="logo_dark.png"
   inkscape:export-xdpi="99.839981"
   inkscape:export-ydpi="99.839981"
   inkscape:version="1.2.1 (9c6d41e410, 2022-07-14)"
   xmlns:inkscape="http://www.inkscape.org/namespaces/inkscape"
   xmlns:sodipodi="http://sodipodi.sourceforge.net/DTD/sodipodi-0.dtd"
   xmlns="http://www.w3.org/2000/svg"
   xmlns:svg="http://www.w3.org/2000/svg">
  <defs
     id="defs66" />
  <sodipodi:namedview
     id="namedview64"
     pagecolor="#ffffff"
     bordercolor="#F56606"
     borderopacity="1.0"
     inkscape:showpageshadow="2"
     inkscape:pageopacity="0"
     inkscape:pagecheckerboard="0"
     inkscape:deskcolor="#d1d1d1"
     inkscape:document-units="pt"
     showgrid="false"
     showborder="true"
     inkscape:zoom="3.0468705"
     inkscape:cx="44.964169"
     inkscape:cy="88.943721"
     inkscape:window-width="1920"
     inkscape:window-height="1009"
     inkscape:window-x="-8"
     inkscape:window-y="-8"
     inkscape:window-maximized="1"
     inkscape:current-layer="svg62" />
  <path
     fill="none"
     stroke-width="2.728"
     stroke-linecap="round"
     stroke-linejoin="miter"
     stroke="#231f20"
     stroke-opacity="1"
     stroke-miterlimit="10"
     d="m 112.53544,70.343574 c 0,18.25 -19.445308,33.042976 -43.433598,33.042976 -23.98828,0 -43.437492,-14.792976 -43.437492,-33.042976 0,-18.24609 19.449212,-33.03906 43.437502,-33.03906 23.98828,0 43.433588,14.79297 43.433588,33.03906 z m 0,0"
     id="path2" />
  <path
     fill-rule="nonzero"
     fill="#231f20"
     fill-opacity="1"
     d="m 112.1995,65.140444 c -0.12109,-0.0898 -0.30078,-0.16406 -0.52734,-0.22265 l -1.07422,14.08593 h -0.59375 c -4.78125,20.312503 -23.437498,32.492196 -40.902348,32.492196 -15.33593,0 -35.80468,-11.23047 -40.886712,-32.492196 h -1.86719 v -14.08593 c -0.1211,0.0703 -0.23828,0.14062 -0.34766,0.22265 -0.77734,0.55078 -1.69922,1.625 -1.69922,3.60938 0,16.89453 8.226572,27.67187 15.128912,33.734376 8.36328,7.35157 19.45703,11.73828 29.67187,11.73828 10.50391,0 21.71094,-4.39062 29.980469,-11.74218 6.761719,-6.011726 14.816409,-16.746106 14.816409,-33.730476 0,-1.98438 -0.92188,-3.0586 -1.69922,-3.60938"
     id="path4" />
  <path
     fill-rule="nonzero"
     fill="#231f20"
     fill-opacity="1"
     d="m 69.508092,71.542794 c -2.13671,0 -3.875,1.73828 -3.875,3.87109 0,2.13672 1.73829,3.875 3.875,3.875 2.13282,0 3.8711,-1.73828 3.8711,-3.875 0,-2.13281 -1.73828,-3.87109 -3.8711,-3.87109 m 0,10.47265 c -3.64062,0 -6.60156,-2.96093 -6.60156,-6.60156 0,-3.64062 2.96094,-6.60156 6.60156,-6.60156 3.63672,0 6.59766,2.96094 6.59766,6.60156 0,3.64063 -2.96094,6.60156 -6.59766,6.60156"
     id="path6" />
  <path
     fill-rule="nonzero"
     fill="#231f20"
     fill-opacity="1"
     d="m 69.304972,103.38655 c 0.97266,-0.004 1.93359,-0.0352 2.89062,-0.0859 -1.11328,-2.75781 -1.73046,-5.769536 -1.73046,-8.917976 0,-13.20312 10.73828,-23.94141 23.9375,-23.94141 6.535148,0 12.464838,2.63672 16.785148,6.89454 0.31641,-0.98047 0.57422,-1.98047 0.78125,-2.99219 -4.69531,-4.1211 -10.84375,-6.62891 -17.566398,-6.62891 -14.70313,0 -26.66407,11.96094 -26.66407,26.66797 0,3.15625 0.55469,6.187506 1.56641,9.003916"
     id="path8" />
  <path
     fill-rule="nonzero"
     fill="#231f20"
     fill-opacity="1"
     d="m 77.383092,94.378724 c 0,-9.38281 7.63672,-17.01562 17.01954,-17.01562 5.550775,0 10.492178,2.67578 13.601558,6.80078 0.51953,-0.83203 1,-1.6875 1.4375,-2.55859 -3.625,-4.25782 -9.01953,-6.96875 -15.039058,-6.96875 -10.88672,0 -19.7461,8.85547 -19.7461,19.74218 0,3.03907 0.69141,5.921886 1.92188,8.496106 0.95312,-0.13281 1.89453,-0.28906 2.82031,-0.46875 -1.28516,-2.39453 -2.01563,-5.125006 -2.01563,-8.027356"
     id="path10" />
  <path
     fill-rule="nonzero"
     fill="#231f20"
     fill-opacity="1"
     d="m 94.402632,81.261544 c -7.23438,0 -13.1211,5.88281 -13.1211,13.12109 0,2.60938 0.76953,5.042973 2.08985,7.089846 0.92578,-0.25781 1.83984,-0.53515 2.73437,-0.83984 -1.31641,-1.742196 -2.09766,-3.906256 -2.09766,-6.250006 0,-5.73437 4.66407,-10.39453 10.39454,-10.39453 4.050779,0 7.562498,2.33203 9.277338,5.71875 0.67187,-0.69922 1.3125,-1.42578 1.91406,-2.16797 -2.30859,-3.76172 -6.460939,-6.27734 -11.191398,-6.27734"
     id="path12" />
  <path
     fill-rule="nonzero"
     fill="#231f20"
     fill-opacity="1"
     d="m 100.72294,92.492014 c -0.812503,-2.72266 -3.339849,-4.71094 -6.320308,-4.71094 -3.64063,0 -6.60157,2.96094 -6.60157,6.59765 0,1.89063 0.80469,3.58985 2.07813,4.79297 0.95312,-0.41406 1.89062,-0.85937 2.79687,-1.32812 -1.26953,-0.63672 -2.14453,-1.94531 -2.14453,-3.46485 0,-2.13281 1.73438,-3.87109 3.8711,-3.87109 2.13281,0 3.871089,1.73828 3.871089,3.87109 0,0.0117 0,0.0234 0,0.0312 0.84766,-0.61328 1.664056,-1.2539 2.449219,-1.91796"
     id="path14" />
  <path
     fill-rule="nonzero"
     fill="#231f20"
     fill-opacity="1"
     d="m 68.508092,103.38264 c 1.25782,-3.09375 1.95704,-6.468756 1.95704,-10.007816 0,-14.70313 -11.96485,-26.66406 -26.66407,-26.66406 -6.80468,0 -13.015618,2.5625 -17.730472,6.76953 0.17969,1.04297 0.41407,2.07422 0.70704,3.08593 4.339842,-4.39843 10.367182,-7.1289 17.023432,-7.1289 13.19532,0 23.9375,10.73828 23.9375,23.9375 0,3.53125 -0.77734,6.878906 -2.15234,9.898446 0.96484,0.0625 1.94141,0.0977 2.92187,0.10937"
     id="path16" />
  <path
     fill-rule="nonzero"
     fill="#231f20"
     fill-opacity="1"
     d="m 43.797162,73.628724 c -6.19141,0 -11.72266,2.86719 -15.347662,7.34375 0.42578,0.90235 0.898444,1.78516 1.414064,2.64844 3.082028,-4.38672 8.175778,-7.26562 13.933598,-7.26562 9.38281,0 17.01953,7.63672 17.01953,17.01953 0,3.27344 -0.92969,6.332033 -2.53906,8.929696 0.9414,0.1914 1.89843,0.35937 2.86328,0.5 1.53125,-2.80079 2.40234,-6.015636 2.40234,-9.429696 0,-10.88672 -8.85547,-19.7461 -19.74609,-19.7461"
     id="path18" />
  <path
     fill-rule="nonzero"
     fill="#231f20"
     fill-opacity="1"
     d="m 43.797162,80.253724 c -4.96875,0 -9.30078,2.77735 -11.52735,6.86329 0.60938,0.77343 1.25391,1.52734 1.9375,2.26171 1.57032,-3.7539 5.27735,-6.39453 9.58985,-6.39453 5.73047,0 10.39453,4.66016 10.39453,10.39063 0,2.71094 -1.04297,5.17969 -2.7461,7.027346 0.91797,0.32813 1.84766,0.62891 2.79688,0.90625 1.67578,-2.207036 2.67578,-4.953126 2.67578,-7.933596 0,-7.23438 -5.88672,-13.1211 -13.12109,-13.1211"
     id="path20" />
  <path
     fill-rule="nonzero"
     fill="#231f20"
     fill-opacity="1"
     d="m 43.797162,86.773264 c -3.28125,0 -6.00391,2.41406 -6.50782,5.55859 0.89454,0.76562 1.83594,1.50391 2.81641,2.20703 -0.11719,-0.36719 -0.17969,-0.75781 -0.17969,-1.16406 0,-2.13281 1.73828,-3.8711 3.8711,-3.8711 2.13672,0 3.875,1.73829 3.875,3.8711 0,1.95312 -1.45703,3.5664 -3.33594,3.83203 1.03125,0.57031 2.09375,1.10937 3.1875,1.60937 1.73437,-1.1875 2.875,-3.18359 2.875,-5.4414 0,-3.64063 -2.96094,-6.60156 -6.60156,-6.60156"
     id="path22" />
  <path
     fill-rule="nonzero"
     fill="#231f20"
     fill-opacity="1"
     d="m 68.457312,99.327947 c -0.21484,0.914073 -0.47656,1.808603 -0.78906,2.683603 0.60938,0.0391 1.21875,0.0703 1.83984,0.0703 0.2461,0 0.48829,-0.0117 0.73438,-0.0195 -0.29297,-0.88281 -0.54297,-1.78516 -0.73438,-2.710943 -0.35156,0 -0.70312,-0.0117 -1.05078,-0.0234"
     id="path24" />
  <path
     fill-rule="nonzero"
     fill="#231f20"
     fill-opacity="1"
     d="m 69.508092,48.749824 c -12.19531,0 -22.49609,8.23047 -25.66015,19.42578 0.94531,0 1.875,0.0547 2.78906,0.15625 3.02734,-9.75391 12.13281,-16.85547 22.87109,-16.85547 10.9336,0 20.17188,7.37109 23.02344,17.40234 0.57031,-0.0352 1.14844,-0.0625 1.73047,-0.0625 0.36719,0 0.72656,0.0117 1.08984,0.0273 -2.93359,-11.53516 -13.41015,-20.09375 -25.84375,-20.09375"
     id="path26" />
  <path
     fill-rule="nonzero"
     fill="#231f20"
     fill-opacity="1"
     d="m 69.508092,55.667794 c -8.69921,0 -16.09375,5.65625 -18.72265,13.48047 0.88281,0.25 1.74219,0.54687 2.58203,0.88671 2.25391,-6.7539 8.63672,-11.63671 16.14062,-11.63671 7.59766,0 14.04688,5.0039 16.22657,11.89453 0.85156,-0.30469 1.72656,-0.5625 2.61718,-0.77735 -2.51562,-8.01562 -10.01171,-13.84765 -18.84375,-13.84765"
     id="path28" />
  <path
     fill-rule="nonzero"
     fill="#231f20"
     fill-opacity="1"
     d="m 67.918252,85.687324 c 0.29688,0.91797 0.54297,1.85547 0.73828,2.8164 0.28125,0.0195 0.5625,0.0312 0.85156,0.0312 0.0274,0 0.0508,0 0.0781,0 0.21094,-0.94531 0.47656,-1.86718 0.78906,-2.76562 -0.28515,0.0234 -0.57422,0.0391 -0.86719,0.0391 -0.54296,0 -1.07421,-0.043 -1.58984,-0.12109"
     id="path30" />
  <path
     fill-rule="nonzero"
     fill="#231f20"
     fill-opacity="1"
     d="m 69.508092,62.292794 c -5.98046,0 -11.03906,4.02343 -12.61328,9.50781 0.83594,0.50391 1.63672,1.05859 2.40625,1.65234 0.92188,-4.79687 5.14453,-8.42968 10.20703,-8.42968 5.05079,0 9.26954,3.62109 10.19922,8.40234 0.78125,-0.55078 1.59375,-1.0625 2.4375,-1.52344 -1.53906,-5.53515 -6.62109,-9.60937 -12.63672,-9.60937"
     id="path32" />
  <path
     fill="none"
     stroke-width="2.728"
     stroke-linecap="round"
     stroke-linejoin="miter"
     stroke="#231f20"
     stroke-opacity="1"
     stroke-miterlimit="10"
     d="m 48.316692,125.0467 c 0,0 -7.66016,21.27344 21.69141,21.27344 28.308589,0 21.73046,-18.15625 20.6875,-21.27344 l -10.34766,6.57032 -10.75781,-11.61719 -10.48047,11.24219 z m 0,0"
     id="path34" />
  <path
     fill="none"
     stroke-width="2.728"
     stroke-linecap="round"
     stroke-linejoin="miter"
     stroke="#231f20"
     stroke-opacity="1"
     stroke-miterlimit="10"
     d="m 56.297162,30.714664 c -6.67188,0 -6.83594,-9.53125 0,-11.65625 6.2539,-1.94531 2.91406,-11.8124992 -2.625,-11.8124992"
     id="path36"
     style="opacity:1;fill:#ffffff" />
  <path
     fill="none"
     stroke-width="2.728"
     stroke-linecap="round"
     stroke-linejoin="miter"
     stroke="#231f20"
     stroke-opacity="1"
     stroke-miterlimit="10"
     d="m 69.797162,26.816234 c -6.67188,0 -6.83594,-9.53516 0,-11.66016 6.2539,-1.94141 2.91406,-11.8085892 -2.625,-11.8085892"
     id="path38" />
  <path
     fill="none"
     stroke-width="2.728"
     stroke-linecap="round"
     stroke-linejoin="miter"
     stroke="#231f20"
     stroke-opacity="1"
     stroke-miterlimit="10"
     d="m 83.297162,30.714664 c -6.67188,0 -6.83594,-9.53125 0,-11.65625 6.2539,-1.94531 2.91406,-11.8124992 -2.625,-11.8124992"
     id="path40" />
  <path
     fill="none"
     stroke-width="2.728"
     stroke-linecap="round"
     stroke-linejoin="miter"
     stroke="#231f20"
     stroke-opacity="1"
     stroke-miterlimit="10"
     d="m 98.418251,45.968574 c 0,0 16.437499,-19.11328 23.273439,-26.98828 7.48437,-2.44922 7.48437,5.03515 7.48437,5.03515 l -25.97656,25.85938"
     id="path42" />
</svg>
