<svg width="81" height="81" viewBox="0 0 81 81" fill="none" xmlns="http://www.w3.org/2000/svg">
<g clip-path="url(#clip0_4_87)">
<path d="M60.7692 37.9855C60.7692 47.8405 50.2687 55.8287 37.315 55.8287C24.3613 55.8287 13.8588 47.8405 13.8588 37.9855C13.8588 28.1326 24.3613 20.1444 37.315 20.1444C50.2687 20.1444 60.7692 28.1326 60.7692 37.9855Z" stroke="#F56606" stroke-width="3.63733" stroke-miterlimit="10" stroke-linecap="round"/>
<path d="M60.5877 35.1758C60.5223 35.1273 60.4253 35.0872 60.303 35.0556L59.7229 42.662H59.4022C56.8204 53.6308 46.746 60.2078 37.315 60.2078C29.0336 60.2078 17.9805 54.1433 15.2362 42.662H14.2279V35.0556C14.1625 35.0936 14.0992 35.1315 14.0401 35.1758C13.6204 35.4733 13.1226 36.0533 13.1226 37.1249C13.1226 46.2479 17.5649 52.0677 21.2922 55.3415C25.8083 59.3113 31.799 61.6801 37.315 61.6801C42.9871 61.6801 49.0389 59.3092 53.5044 55.3394C57.1558 52.093 61.5053 46.2965 61.5053 37.1249C61.5053 36.0533 61.0075 35.4733 60.5877 35.1758Z" fill="#F56606"/>
<path d="M37.5344 38.6331C36.3806 38.6331 35.4419 39.5718 35.4419 40.7235C35.4419 41.8773 36.3806 42.816 37.5344 42.816C38.6861 42.816 39.6248 41.8773 39.6248 40.7235C39.6248 39.5718 38.6861 38.6331 37.5344 38.6331ZM37.5344 44.2883C35.5685 44.2883 33.9695 42.6894 33.9695 40.7235C33.9695 38.7576 35.5685 37.1587 37.5344 37.1587C39.4982 37.1587 41.0971 38.7576 41.0971 40.7235C41.0971 42.6894 39.4982 44.2883 37.5344 44.2883Z" fill="#F56606"/>
<path d="M37.4247 55.8287C37.9499 55.8266 38.4688 55.8097 38.9856 55.7824C38.3844 54.2931 38.0511 52.6668 38.0511 50.9667C38.0511 43.837 43.8498 38.0383 50.9774 38.0383C54.5064 38.0383 57.7084 39.4621 60.0414 41.7613C60.2122 41.2319 60.3515 40.6919 60.4633 40.1456C57.9278 37.9202 54.6076 36.5659 50.9774 36.5659C43.0377 36.5659 36.5788 43.0249 36.5788 50.9667C36.5788 52.671 36.8783 54.3079 37.4247 55.8287Z" fill="#F56606"/>
<path d="M41.7869 50.9645C41.7869 45.8978 45.9107 41.7761 50.9774 41.7761C53.9748 41.7761 56.6432 43.221 58.3222 45.4485C58.6028 44.9992 58.8622 44.5372 59.0985 44.0669C57.141 41.7676 54.228 40.3037 50.9774 40.3037C45.0986 40.3037 40.3145 45.0857 40.3145 50.9645C40.3145 52.6056 40.6879 54.1623 41.3523 55.5524C41.867 55.4807 42.3754 55.3963 42.8753 55.2993C42.1813 54.0062 41.7869 52.5318 41.7869 50.9645Z" fill="#F56606"/>
<path d="M50.9774 43.8812C47.0709 43.8812 43.892 47.0579 43.892 50.9666C43.892 52.3757 44.3076 53.6898 45.0205 54.7951C45.5205 54.6559 46.0141 54.5061 46.4971 54.3416C45.7862 53.4008 45.3644 52.2322 45.3644 50.9666C45.3644 47.8701 47.883 45.3536 50.9774 45.3536C53.1648 45.3536 55.0612 46.6129 55.9872 48.4417C56.35 48.0641 56.6959 47.6718 57.0208 47.271C55.7741 45.2397 53.5319 43.8812 50.9774 43.8812Z" fill="#F56606"/>
<path d="M54.3904 49.9457C53.9517 48.4754 52.5869 47.4018 50.9774 47.4018C49.0115 47.4018 47.4126 49.0007 47.4126 50.9645C47.4126 51.9854 47.8471 52.903 48.5348 53.5527C49.0495 53.3291 49.5557 53.0887 50.0451 52.8355C49.3596 52.4917 48.8871 51.7851 48.8871 50.9645C48.8871 49.8128 49.8236 48.8741 50.9774 48.8741C52.1292 48.8741 53.0678 49.8128 53.0678 50.9645C53.0678 50.9708 53.0678 50.9771 53.0678 50.9814C53.5256 50.6502 53.9664 50.3043 54.3904 49.9457Z" fill="#F56606"/>
<path d="M36.9944 55.8266C37.6736 54.156 38.0512 52.3335 38.0512 50.4224C38.0512 42.4827 31.5902 36.0238 23.6526 36.0238C19.9781 36.0238 16.6241 37.4076 14.0781 39.6794C14.1752 40.2426 14.3017 40.7994 14.4599 41.3458C16.8034 38.9706 20.0582 37.4961 23.6526 37.4961C30.7781 37.4961 36.5788 43.2948 36.5788 50.4224C36.5788 52.3293 36.1591 54.137 35.4166 55.7676C35.9376 55.8013 36.4649 55.8203 36.9944 55.8266Z" fill="#F56606"/>
<path d="M23.6505 39.7595C20.3071 39.7595 17.3202 41.3078 15.3627 43.7251C15.5927 44.2124 15.8479 44.6891 16.1263 45.1553C17.7906 42.7865 20.5412 41.2319 23.6505 41.2319C28.7172 41.2319 32.841 45.3557 32.841 50.4224C32.841 52.1901 32.339 53.8417 31.4699 55.2444C31.9783 55.3478 32.4951 55.4385 33.0161 55.5144C33.843 54.002 34.3134 52.266 34.3134 50.4224C34.3134 44.5436 29.5314 39.7595 23.6505 39.7595Z" fill="#F56606"/>
<path d="M23.6505 43.337C20.9674 43.337 18.6281 44.8368 17.4257 47.0432C17.7548 47.4608 18.1028 47.8679 18.472 48.2645C19.3199 46.2374 21.3217 44.8115 23.6505 44.8115C26.7449 44.8115 29.2635 47.3279 29.2635 50.4224C29.2635 51.8863 28.7003 53.2194 27.7806 54.2172C28.2763 54.3944 28.7784 54.5568 29.291 54.7065C30.1959 53.5147 30.7359 52.0319 30.7359 50.4224C30.7359 46.5158 27.557 43.337 23.6505 43.337Z" fill="#F56606"/>
<path d="M23.6505 46.8576C21.8786 46.8576 20.4083 48.1612 20.1362 49.8592C20.6193 50.2726 21.1276 50.6713 21.6571 51.051C21.5938 50.8527 21.5601 50.6418 21.5601 50.4224C21.5601 49.2707 22.4987 48.332 23.6505 48.332C24.8043 48.332 25.743 49.2707 25.743 50.4224C25.743 51.4771 24.9562 52.3483 23.9415 52.4917C24.4984 52.7997 25.0722 53.0908 25.6628 53.3608C26.5994 52.7195 27.2153 51.6416 27.2153 50.4224C27.2153 48.4565 25.6164 46.8576 23.6505 46.8576Z" fill="#F56606"/>
<path d="M36.9669 53.6371C36.8509 54.1307 36.7096 54.6137 36.5408 55.0862C36.8699 55.1074 37.199 55.1242 37.5343 55.1242C37.6672 55.1242 37.798 55.1179 37.9309 55.1137C37.7727 54.637 37.6377 54.1497 37.5343 53.6498C37.3445 53.6498 37.1547 53.6434 36.9669 53.6371Z" fill="#F56606"/>
<path d="M37.5343 26.3249C30.9489 26.3249 25.3864 30.7694 23.6779 36.8148C24.1883 36.8148 24.6904 36.8444 25.1839 36.8992C26.8187 31.6321 31.7357 27.7972 37.5343 27.7972C43.4385 27.7972 48.4272 31.7776 49.967 37.1945C50.275 37.1755 50.5872 37.1608 50.9014 37.1608C51.0997 37.1608 51.2938 37.1671 51.49 37.1755C49.9058 30.9465 44.2485 26.3249 37.5343 26.3249Z" fill="#F56606"/>
<path d="M37.5344 30.0606C32.8368 30.0606 28.8437 33.115 27.4241 37.3401C27.9009 37.4751 28.3649 37.6354 28.8184 37.8189C30.0355 34.1718 33.4823 31.5351 37.5344 31.5351C41.6371 31.5351 45.1197 34.2372 46.2967 37.9581C46.7566 37.7936 47.2291 37.6544 47.71 37.5383C46.3516 33.2099 42.3037 30.0606 37.5344 30.0606Z" fill="#F56606"/>
<path d="M36.6759 46.2712C36.8362 46.7669 36.9691 47.2731 37.0745 47.792C37.2264 47.8025 37.3783 47.8089 37.5344 47.8089C37.5492 47.8089 37.5618 47.8089 37.5765 47.8089C37.6905 47.2984 37.8339 46.8006 38.0026 46.3154C37.8487 46.3281 37.6926 46.3365 37.5344 46.3365C37.2412 46.3365 36.9543 46.3133 36.6759 46.2712Z" fill="#F56606"/>
<path d="M37.5344 33.6381C34.3049 33.6381 31.5733 35.8108 30.7232 38.7723C31.1746 39.0444 31.607 39.344 32.0226 39.6646C32.5204 37.0743 34.8006 35.1126 37.5344 35.1126C40.2618 35.1126 42.5399 37.068 43.042 39.6498C43.4638 39.3524 43.9026 39.0761 44.3582 38.8272C43.5271 35.8382 40.7828 33.6381 37.5344 33.6381Z" fill="#F56606"/>
<path d="M26.091 67.5252C26.091 67.5252 21.9545 79.0129 37.8044 79.0129C53.091 79.0129 49.5388 69.2085 48.9756 67.5252L43.3879 71.0732L37.5787 64.7999L31.9192 70.8707L26.091 67.5252Z" stroke="#F56606" stroke-width="3.63733" stroke-miterlimit="10" stroke-linecap="round"/>
<path d="M30.4005 16.5859C26.7977 16.5859 26.7091 11.439 30.4005 10.2915C33.7776 9.24108 31.9741 3.9128 28.983 3.9128" stroke="#F56606" stroke-width="3.63733" stroke-miterlimit="10" stroke-linecap="round"/>
<path d="M37.6905 14.4808C34.0876 14.4808 33.999 9.33179 37.6905 8.18429C41.0676 7.13593 39.264 1.80765 36.273 1.80765" stroke="#F56606" stroke-width="3.63733" stroke-miterlimit="10" stroke-linecap="round"/>
<path d="M44.9805 16.5859C41.3777 16.5859 41.2891 11.439 44.9805 10.2915C48.3576 9.24108 46.5541 3.9128 43.563 3.9128" stroke="#F56606" stroke-width="3.63733" stroke-miterlimit="10" stroke-linecap="round"/>
<path d="M53.1459 24.823C53.1459 24.823 62.0221 14.5019 65.7135 10.2494C69.7551 8.92678 69.7551 12.9683 69.7551 12.9683L55.7277 26.9324" stroke="#F56606" stroke-width="3.63733" stroke-miterlimit="10" stroke-linecap="round"/>
</g>
<defs>
<clipPath id="clip0_4_87">
<rect width="81" height="81" fill="white"/>
</clipPath>
</defs>
</svg>
